<svg version="1.1" id="Layer_1" xmlns="http://www.w3.org/2000/svg" xmlns:xlink="http://www.w3.org/1999/xlink" x="0px" y="0px"
	 width="100%" viewBox="0 0 376 134" enable-background="new 0 0 376 134" xml:space="preserve">
<path fill="#FDFBFC" opacity="1.000000" stroke="none" 
	d="
M262.000000,135.000000 
	C174.666672,135.000000 87.833351,135.000000 1.000023,135.000000 
	C1.000015,90.333351 1.000015,45.666698 1.000008,1.000035 
	C126.333305,1.000024 251.666611,1.000024 376.999939,1.000012 
	C376.999939,45.666630 376.999939,90.333260 376.999969,134.999939 
	C338.833344,135.000000 300.666656,135.000000 262.000000,135.000000 
M38.792000,116.986771 
	C40.192608,116.666679 41.593212,116.346588 43.843624,116.134750 
	C45.752872,116.134750 47.662125,116.134750 49.645061,116.134750 
	C48.522282,106.852074 46.364323,105.563507 38.814220,106.613884 
	C34.816986,107.169983 33.810390,109.455414 33.168831,112.224113 
	C32.279827,116.060707 32.391579,120.474678 36.134003,122.490417 
	C38.695889,123.870300 42.362316,123.430740 45.515503,123.307343 
	C46.239140,123.279022 46.882889,121.209435 47.563404,120.079269 
	C46.318260,119.967766 44.699108,119.298431 43.891701,119.839790 
	C40.078045,122.396797 38.693714,120.602341 38.792000,116.986771 
M72.828850,60.072819 
	C76.772644,60.026958 80.440163,59.337009 82.858681,56.411697 
	C77.410492,54.628235 72.153687,52.907417 67.597443,50.899517 
	C67.348930,49.517387 67.409073,47.979969 66.803978,46.777237 
	C60.996166,35.233200 53.779762,24.638069 44.050156,16.066860 
	C40.117043,12.602021 35.490505,9.775977 30.827255,7.331148 
	C26.400959,5.010547 22.127079,6.994937 21.515493,11.951699 
	C20.204039,22.580717 21.543936,32.897045 27.182018,42.046288 
	C24.427816,42.996475 21.720514,43.991985 21.647253,47.394375 
	C25.620897,48.352451 29.420780,49.268631 32.792809,50.768429 
	C32.412682,51.455807 31.524565,52.468288 31.726200,52.783356 
	C37.895588,62.423389 44.158863,72.003601 50.466881,81.553932 
	C50.815437,82.081642 51.673080,82.273087 51.711742,82.294762 
	C52.164360,80.083153 52.586906,78.018478 53.064453,76.620079 
	C53.742466,77.752319 54.420475,78.884567 55.082298,80.564873 
	C55.366047,80.781868 55.649796,80.998856 56.091320,81.860649 
	C57.099281,83.579796 58.107239,85.298943 59.080414,87.545525 
	C59.380753,87.661423 59.681095,87.777328 60.356556,88.069572 
	C60.356556,88.069572 60.770950,88.079414 61.131699,88.692833 
	C62.854786,90.517441 64.577873,92.342049 66.300957,94.166656 
	C66.614883,93.950928 66.928818,93.735199 67.242744,93.519470 
	C66.166054,91.678314 65.089355,89.837151 64.076630,87.247169 
	C63.960804,85.873634 63.844982,84.500099 63.686272,82.617966 
	C67.389145,86.688995 70.822815,90.464058 74.256477,94.239120 
	C74.426323,94.074387 74.596169,93.909660 74.766022,93.744926 
	C73.393456,89.501816 72.020897,85.258713 70.648338,81.015602 
	C71.067139,80.713982 71.485939,80.412361 71.904739,80.110741 
	C73.902802,82.473083 75.900871,84.835426 77.898933,87.197762 
	C78.259644,87.038170 78.620354,86.878571 78.981064,86.718979 
	C76.071510,80.153458 73.161964,73.587929 70.994385,67.039772 
	C72.511780,67.289207 74.029182,67.538643 75.546577,67.788078 
	C75.834618,67.449646 76.122650,67.111214 76.410690,66.772781 
	C74.941704,64.582588 73.472710,62.392391 72.828850,60.072819 
M308.919891,6.297110 
	C301.956177,7.797184 294.731201,8.576564 288.095581,10.981830 
	C280.007355,13.913638 277.701080,19.881599 279.502045,28.261377 
	C281.011017,35.282463 284.728394,40.916382 290.288696,45.155067 
	C298.226471,51.206104 306.509064,56.802792 314.562134,62.705711 
	C317.259277,64.682709 319.704651,67.003181 322.039673,68.976196 
	C318.833527,74.840240 314.584351,72.000931 310.965363,71.931213 
	C297.988373,71.681274 284.969757,71.806793 272.054749,70.733437 
	C263.024384,69.982933 254.686081,66.549370 249.235901,58.104576 
	C251.743073,56.285011 254.124451,54.786751 256.242096,52.979477 
	C264.766174,45.704792 265.567383,36.808941 257.925812,28.669575 
	C254.684280,25.216864 250.628281,22.319035 246.492752,19.955994 
	C235.508255,13.679430 223.403320,9.987104 210.942871,9.160028 
	C189.037476,7.706033 167.051468,7.465334 145.098267,6.744901 
	C144.693207,6.731609 144.276566,7.071152 143.367935,7.457627 
	C154.834961,28.609337 166.202530,49.577583 178.362656,72.007736 
	C173.843903,71.578705 170.497482,71.362213 167.179779,70.926804 
	C157.615997,69.671692 150.108337,65.848534 145.324448,56.609074 
	C136.534073,39.631577 126.948395,23.065859 117.836197,6.585283 
	C105.036743,6.585283 92.510834,6.585283 79.595207,6.585283 
	C80.106499,7.811165 80.349213,8.585250 80.731865,9.282541 
	C91.294182,28.529718 101.721863,47.853016 112.504021,66.976425 
	C118.417305,77.464317 127.000175,85.569832 138.660416,88.938042 
	C148.649902,91.823631 159.038483,94.206055 169.370712,94.833977 
	C187.805984,95.954361 206.331818,95.587799 224.819992,95.826973 
	C226.036758,95.842720 227.255264,95.722832 229.049927,95.639122 
	C217.114563,74.196434 205.518509,53.363335 193.520889,31.808788 
	C205.719940,33.029285 217.286636,32.534477 226.857117,41.057777 
	C222.283188,42.784809 217.702255,43.592606 213.093872,44.188042 
	C208.809769,44.741581 208.090164,45.828793 210.086426,49.614967 
	C212.334763,53.879246 214.897705,57.986195 216.990799,62.322319 
	C226.320496,81.649918 242.402634,91.964378 263.005371,93.810867 
	C283.678406,95.663651 304.559631,95.795998 325.338013,95.577934 
	C333.811249,95.489006 342.631195,93.523727 350.629852,90.598000 
	C365.977631,84.984123 367.807770,72.518639 355.265320,62.089397 
	C349.525238,57.316425 343.057556,53.426266 337.001617,49.023247 
	C330.683319,44.429482 324.241455,39.963280 318.282349,34.933411 
	C314.609528,31.833334 315.401062,29.769573 320.043060,28.578466 
	C321.639496,28.168835 323.326355,28.047705 324.981323,27.942118 
	C330.607574,27.583160 336.238037,27.289989 343.152344,26.899010 
	C341.009796,24.071936 339.392975,21.948204 337.786224,19.816916 
	C330.784241,10.529413 322.731476,3.408764 308.919891,6.297110 
M84.610657,108.560303 
	C84.610657,113.627098 84.610657,118.693886 84.610657,123.821075 
	C86.571175,123.821075 87.864113,123.821075 89.715088,123.821075 
	C89.715088,120.420593 89.715088,117.189987 89.715088,113.863297 
	C95.339455,113.145691 96.579025,117.473274 98.448219,120.460571 
	C100.400665,123.580925 102.542534,124.912666 106.666405,123.404770 
	C104.212395,119.829269 101.862656,116.405693 99.524948,112.999641 
	C102.753151,111.135674 105.751930,108.950500 104.745895,104.640518 
	C103.714554,100.222099 100.263031,98.992279 96.122993,99.032829 
	C92.381729,99.069466 88.639824,99.040565 84.611000,99.040565 
	C84.611000,102.304283 84.611000,104.945869 84.610657,108.560303 
M342.848450,112.020126 
	C342.228912,108.865837 341.732849,105.595558 337.304932,105.890465 
	C333.191345,106.164413 329.081299,106.599121 324.964294,106.676697 
	C322.058411,106.731453 319.143463,106.307846 316.042389,106.084084 
	C316.042389,111.930817 316.035431,117.416656 316.062195,122.902328 
	C316.063599,123.186172 316.352905,123.468597 316.495697,123.728958 
	C317.923676,123.728958 319.327698,123.728958 321.074463,123.728958 
	C321.074463,120.153152 321.014374,116.846268 321.108276,113.543770 
	C321.139557,112.443108 321.214813,110.933510 321.897919,110.363747 
	C322.783264,109.625290 324.534607,109.089233 325.469299,109.493156 
	C326.315430,109.858780 326.945801,111.583588 327.007599,112.744408 
	C327.200226,116.364395 327.078247,120.001137 327.078247,123.988731 
	C328.935486,123.876045 330.303711,123.793030 331.905518,123.695839 
	C331.905518,120.818161 331.829926,118.333382 331.925720,115.855225 
	C332.032379,113.096451 331.530304,109.238327 335.441315,109.341972 
	C339.450775,109.448235 337.683868,113.422943 337.967560,115.758461 
	C338.282288,118.348930 338.039581,121.007133 338.039581,123.971771 
	C339.852722,123.876404 341.225891,123.804176 342.869873,123.717705 
	C342.869873,119.861214 342.869873,116.383400 342.848450,112.020126 
M233.419617,124.229233 
	C237.932846,124.123268 241.760651,122.951576 242.305481,117.644760 
	C242.842606,112.413010 241.131485,110.648529 234.644318,108.727196 
	C232.314880,108.037292 230.109894,106.927238 227.482376,105.860435 
	C232.562973,99.049316 237.176056,107.433159 242.243164,104.221001 
	C240.746597,102.648506 239.603394,100.540054 237.908325,99.905258 
	C235.967529,99.178436 233.386993,100.267944 231.349884,99.667572 
	C227.171280,98.436066 224.915985,100.258858 223.860092,103.819443 
	C222.675079,107.815392 224.593643,110.588249 228.357346,112.015938 
	C230.517715,112.835442 232.890747,113.148621 234.962662,114.125381 
	C236.088409,114.656082 237.611557,116.239685 237.465897,117.094589 
	C237.281250,118.178391 235.381546,119.945381 234.574295,119.772285 
	C231.681778,119.152046 228.938187,117.837296 226.138290,116.785179 
	C226.241013,116.373878 226.343750,115.962578 226.446472,115.551285 
	C225.267044,116.266129 224.087631,116.980972 222.923447,117.686584 
	C224.462891,122.803619 227.992554,124.307388 233.419617,124.229233 
M156.065033,109.524643 
	C155.487305,111.678795 154.909576,113.832939 154.295166,116.123863 
	C150.639328,113.190010 153.968216,105.371025 145.925323,106.010284 
	C147.634903,111.304550 149.009766,116.094307 150.787216,120.729698 
	C151.294327,122.052231 152.969864,122.926727 154.109619,124.006676 
	C155.108765,122.785408 156.404572,121.699524 157.038010,120.311378 
	C158.004913,118.192474 158.514069,115.864693 159.445984,112.898636 
	C160.612534,117.083824 161.538391,120.405457 162.813797,124.981224 
	C164.814621,123.644157 167.087692,122.972252 167.627380,121.612404 
	C169.575729,116.703217 170.940659,111.562485 172.685593,106.000130 
	C164.505142,105.525681 168.150513,113.905838 164.302017,116.199341 
	C163.424469,112.863686 162.546906,109.528038 161.220398,104.485825 
	C159.051224,106.335396 157.650421,107.529800 156.065033,109.524643 
M296.659027,119.438026 
	C300.632599,125.699081 307.156982,126.169144 311.274170,120.517471 
	C308.209442,116.640488 306.365875,120.611465 303.884705,121.849342 
	C302.761414,120.276237 301.682404,118.765106 299.802612,116.132568 
	C304.896515,116.132568 308.766907,116.132568 312.814636,116.132568 
	C312.609314,114.504501 312.562683,113.673393 312.393402,112.868065 
	C311.385895,108.075371 308.231506,105.218567 304.388031,105.580406 
	C298.861450,106.100708 296.125061,108.860672 295.957245,114.241379 
	C295.911102,115.720108 296.181915,117.208725 296.659027,119.438026 
M255.669479,114.100800 
	C255.162872,115.139748 254.656281,116.178703 253.815659,117.902657 
	C252.695038,114.545471 251.699493,112.078232 251.060318,109.521896 
	C250.199112,106.077621 248.375122,104.993866 244.902191,106.441048 
	C246.646790,111.082085 248.343735,115.578583 250.027466,120.080025 
	C252.100464,125.622139 251.800629,126.227768 246.076660,128.070633 
	C245.663803,131.495712 247.810181,132.521088 250.268692,131.324203 
	C252.450485,130.262009 254.743362,128.248322 255.703491,126.084923 
	C258.252960,120.340294 260.112762,114.289215 262.228180,108.353371 
	C262.325134,108.081345 262.240601,107.744652 262.240601,107.116943 
	C261.202667,106.669373 260.064575,106.178604 258.477173,105.494087 
	C257.539795,108.387283 256.735931,110.868347 255.669479,114.100800 
M196.057541,115.443336 
	C196.957779,117.757179 198.312012,120.017555 198.593079,122.404305 
	C198.770203,123.908195 197.461456,125.670174 196.593063,127.186867 
	C195.939377,128.328522 194.926392,129.264465 194.073364,130.291977 
	C195.525223,130.652054 197.149734,131.594101 198.385925,131.227325 
	C199.989899,130.751434 201.998779,129.531815 202.591171,128.113510 
	C205.423019,121.333374 207.834717,114.377747 210.575470,107.000824 
	C201.988953,106.521912 205.561996,115.129875 202.051575,117.076599 
	C198.000992,114.206566 201.525269,105.772789 192.596878,105.913406 
	C193.805435,109.182205 194.823318,111.935257 196.057541,115.443336 
M175.189819,110.548203 
	C176.840683,110.277336 178.580582,110.248260 180.122116,109.680557 
	C182.613647,108.762985 184.437912,108.678154 185.425766,112.155441 
	C182.949097,112.779610 180.895798,113.319695 178.831192,113.812286 
	C175.441833,114.620941 173.446945,116.666336 174.103333,120.209518 
	C174.740295,123.647919 177.709991,124.811218 180.551254,124.003242 
	C183.541245,123.152962 186.214279,122.781746 189.093048,123.953781 
	C189.447296,124.097992 189.998276,123.758926 189.988800,123.761299 
	C189.988800,120.245796 189.967575,116.980911 189.994812,113.716431 
	C190.021683,110.499695 190.307693,106.559090 186.197983,106.176826 
	C182.276978,105.812111 177.306534,104.336517 175.189819,110.548203 
M117.541016,113.665611 
	C115.960732,113.739914 113.917679,113.222527 112.901100,114.017593 
	C111.056671,115.460121 108.714737,117.613235 108.588104,119.597855 
	C108.385239,122.777359 111.106918,124.380150 114.426537,124.169952 
	C117.848495,123.953278 121.267120,123.683952 124.086357,123.480934 
	C124.086357,120.093590 124.044846,116.668129 124.098328,113.244164 
	C124.149254,109.983658 124.255852,106.812515 120.011429,105.892426 
	C115.709938,104.959961 110.951080,106.823532 108.626236,111.513840 
	C111.159966,110.718468 112.774147,110.033752 114.456596,109.739891 
	C115.804535,109.504456 117.235367,109.743622 118.629410,109.772156 
	C118.437233,110.881142 118.245056,111.990120 117.541016,113.665611 
M271.234070,120.849220 
	C269.660553,117.940758 267.591400,117.531357 264.882721,119.408752 
	C266.829681,123.981514 270.549286,124.335289 274.525482,124.169228 
	C278.038086,124.022537 280.761230,122.681061 281.301819,118.914253 
	C281.862488,115.007561 278.989136,113.877800 275.967255,112.977982 
	C273.895172,112.361000 271.860657,111.618011 269.809326,110.931351 
	C269.947906,110.324265 270.086456,109.717186 270.225006,109.110107 
	C273.572968,109.618362 276.920929,110.126625 280.980499,110.742920 
	C278.684967,105.168793 275.246613,106.458832 271.708466,106.410095 
	C268.166595,106.361320 265.832581,106.932182 265.423035,110.522171 
	C264.991516,114.304230 267.794952,115.554977 270.894562,116.410088 
	C272.942108,116.974968 274.913666,117.815277 276.919220,118.532272 
	C276.861725,118.975945 276.804230,119.419624 276.746735,119.863304 
	C275.080719,120.333023 273.414673,120.802734 271.234070,120.849220 
M356.595490,112.902084 
	C354.704834,112.252106 352.814148,111.602127 350.923492,110.952141 
	C351.057953,110.327011 351.192413,109.701881 351.326874,109.076752 
	C353.172363,109.386360 355.009491,109.772705 356.866699,109.974281 
	C357.844452,110.080406 358.965576,110.092072 359.806671,109.692825 
	C360.205078,109.503708 360.462463,107.983147 360.137329,107.539970 
	C359.613800,106.826370 358.562225,106.115005 357.720795,106.099434 
	C355.932251,106.066338 354.023315,106.980362 352.365631,106.607758 
	C349.026123,105.857117 347.278015,107.096031 346.754059,110.174431 
	C346.165039,113.635139 348.155121,115.333939 351.302490,116.167747 
	C353.574005,116.769524 355.779175,117.621857 358.251526,118.441185 
	C355.768219,122.650589 353.620270,121.115852 351.176758,119.471199 
	C350.215942,118.824524 348.654785,119.069832 347.366974,118.908943 
	C347.363495,119.813377 347.155060,121.447365 347.387299,121.512596 
	C350.753632,122.458130 354.266663,124.013908 357.556549,123.662621 
	C359.446747,123.460777 362.132782,120.191177 362.325592,118.105217 
	C362.467255,116.572327 359.144592,114.719215 356.595490,112.902084 
M12.915483,109.529305 
	C12.915483,114.266075 12.915483,119.002838 12.915483,123.997047 
	C18.156996,123.997047 22.776751,124.069969 27.390228,123.932350 
	C28.259321,123.906418 29.103390,123.041573 29.959007,122.563835 
	C29.015116,121.998779 28.102331,121.020317 27.121475,120.946518 
	C24.225925,120.728645 21.303446,120.868683 17.970449,120.868683 
	C17.970449,113.303574 17.970449,106.407349 17.970449,99.442886 
	C16.123919,99.442886 14.731408,99.442886 12.915466,99.442886 
	C12.915466,102.648926 12.915466,105.597267 12.915483,109.529305 
M62.555218,109.154587 
	C63.372566,110.552223 64.745628,111.892998 64.895622,113.358925 
	C65.245499,116.778374 65.007263,120.257988 65.007263,123.713234 
	C65.516953,123.970551 66.026634,124.227859 66.536324,124.485176 
	C67.357697,123.344780 68.773422,122.260658 68.887726,121.053322 
	C69.215538,117.590675 68.840858,114.066177 69.077759,110.588844 
	C69.278641,107.640167 67.899162,106.776527 65.309082,106.801491 
	C61.622749,106.837021 57.935825,106.810524 53.762360,106.810524 
	C53.762360,111.119431 53.901028,115.916100 53.716793,120.700333 
	C53.579018,124.278206 55.174786,124.533142 58.203808,123.429756 
	C58.203808,120.407738 57.772892,117.347366 58.354027,114.493042 
	C58.746948,112.563141 60.564739,110.923347 62.555218,109.154587 
M293.997864,122.288239 
	C293.994934,121.956619 294.135437,121.477341 293.968201,121.314880 
	C289.442505,116.918442 289.426697,115.269211 293.556671,109.166245 
	C293.988281,108.528412 293.902496,107.121132 293.483704,106.406837 
	C292.290436,104.371552 290.801025,102.509865 288.616211,99.438560 
	C286.986694,102.648109 284.680206,105.595886 284.090912,108.854225 
	C283.615967,111.480293 285.667664,114.459953 285.804016,117.320595 
	C286.128479,124.127495 287.110596,125.007904 293.997864,122.288239 
M19.189718,52.167107 
	C19.508406,49.788368 19.827091,47.409634 20.152615,44.979874 
	C13.090382,47.265301 11.101214,57.420666 16.487255,64.493233 
	C18.332157,63.338982 20.201180,62.169647 21.760902,61.193821 
	C20.806013,58.023579 20.047613,55.505688 19.189718,52.167107 
M143.358643,106.557556 
	C143.358643,104.132584 143.358643,101.707611 143.358643,98.963562 
	C141.392487,99.164314 140.168640,99.289268 139.040955,99.404404 
	C139.040955,107.709290 139.040955,115.648666 139.040955,123.709305 
	C140.532242,123.709305 141.760147,123.709305 143.358841,123.709305 
	C143.358841,118.141968 143.358841,112.840576 143.358643,106.557556 
M131.390884,105.916801 
	C130.570129,106.929329 129.102417,107.904327 129.041122,108.960930 
	C128.782135,113.424088 128.931168,117.911636 128.964996,122.390007 
	C128.968491,122.851082 129.198502,123.310455 129.390274,124.017029 
	C130.817139,123.921616 132.201218,123.829071 133.866638,123.717712 
	C133.866638,118.246162 133.925812,113.127121 133.798248,108.012733 
	C133.780579,107.304710 132.839890,106.619713 131.390884,105.916801 
M81.557083,44.082214 
	C82.201569,47.032860 82.846046,49.983501 83.501221,52.983089 
	C88.726692,50.069637 89.452606,44.853386 85.017754,37.720181 
	C83.581436,39.829895 82.388000,41.582855 81.557083,44.082214 
z"/>
<path fill="#303293" opacity="1.000000" stroke="none" 
	d="
M309.380981,6.269984 
	C322.731476,3.408764 330.784241,10.529413 337.786224,19.816916 
	C339.392975,21.948204 341.009796,24.071936 343.152344,26.899010 
	C336.238037,27.289989 330.607574,27.583160 324.981323,27.942118 
	C323.326355,28.047705 321.639496,28.168835 320.043060,28.578466 
	C315.401062,29.769573 314.609528,31.833334 318.282349,34.933411 
	C324.241455,39.963280 330.683319,44.429482 337.001617,49.023247 
	C343.057556,53.426266 349.525238,57.316425 355.265320,62.089397 
	C367.807770,72.518639 365.977631,84.984123 350.629852,90.598000 
	C342.631195,93.523727 333.811249,95.489006 325.338013,95.577934 
	C304.559631,95.795998 283.678406,95.663651 263.005371,93.810867 
	C242.402634,91.964378 226.320496,81.649918 216.990799,62.322319 
	C214.897705,57.986195 212.334763,53.879246 210.086426,49.614967 
	C208.090164,45.828793 208.809769,44.741581 213.093872,44.188042 
	C217.702255,43.592606 222.283188,42.784809 226.857117,41.057777 
	C217.286636,32.534477 205.719940,33.029285 193.520889,31.808788 
	C205.518509,53.363335 217.114563,74.196434 229.049927,95.639122 
	C227.255264,95.722832 226.036758,95.842720 224.819992,95.826973 
	C206.331818,95.587799 187.805984,95.954361 169.370712,94.833977 
	C159.038483,94.206055 148.649902,91.823631 138.660416,88.938042 
	C127.000175,85.569832 118.417305,77.464317 112.504021,66.976425 
	C101.721863,47.853016 91.294182,28.529718 80.731865,9.282541 
	C80.349213,8.585250 80.106499,7.811165 79.595207,6.585283 
	C92.510834,6.585283 105.036743,6.585283 117.836197,6.585283 
	C126.948395,23.065859 136.534073,39.631577 145.324448,56.609074 
	C150.108337,65.848534 157.615997,69.671692 167.179779,70.926804 
	C170.497482,71.362213 173.843903,71.578705 178.362656,72.007736 
	C166.202530,49.577583 154.834961,28.609337 143.367935,7.457627 
	C144.276566,7.071152 144.693207,6.731609 145.098267,6.744901 
	C167.051468,7.465334 189.037476,7.706033 210.942871,9.160028 
	C223.403320,9.987104 235.508255,13.679430 246.492752,19.955994 
	C250.628281,22.319035 254.684280,25.216864 257.925812,28.669575 
	C265.567383,36.808941 264.766174,45.704792 256.242096,52.979477 
	C254.124451,54.786751 251.743073,56.285011 249.235901,58.104576 
	C254.686081,66.549370 263.024384,69.982933 272.054749,70.733437 
	C284.969757,71.806793 297.988373,71.681274 310.965363,71.931213 
	C314.584351,72.000931 318.833527,74.840240 322.039673,68.976196 
	C319.704651,67.003181 317.259277,64.682709 314.562134,62.705711 
	C306.509064,56.802792 298.226471,51.206104 290.288696,45.155067 
	C284.728394,40.916382 281.011017,35.282463 279.502045,28.261377 
	C277.701080,19.881599 280.007355,13.913638 288.095581,10.981830 
	C294.731201,8.576564 301.956177,7.797184 309.380981,6.269984 
z"/>
<path fill="#303293" opacity="1.000000" stroke="none" 
	d="
M27.896954,42.019501 
	C21.543936,32.897045 20.204039,22.580717 21.515493,11.951699 
	C22.127079,6.994937 26.400959,5.010547 30.827255,7.331148 
	C35.490505,9.775977 40.117043,12.602021 44.050156,16.066860 
	C53.779762,24.638069 60.996166,35.233200 66.803978,46.777237 
	C67.409073,47.979969 67.348930,49.517387 66.930962,50.988438 
	C65.379402,51.096123 64.462448,51.275551 63.614452,51.107346 
	C58.449390,50.082855 53.300011,48.979309 48.029877,47.662079 
	C47.258224,47.254208 46.602097,47.086384 45.577614,46.915398 
	C39.438488,45.281322 33.667721,43.650414 27.896954,42.019501 
z"/>
<path fill="#323495" opacity="1.000000" stroke="none" 
	d="
M60.770950,88.079414 
	C60.770950,88.079414 60.356556,88.069572 60.077610,87.788818 
	C59.624863,87.269402 59.397041,87.106071 59.115196,87.018089 
	C58.107239,85.298943 57.099281,83.579796 55.946121,81.292404 
	C55.566780,80.488373 55.332634,80.252594 55.098488,80.016808 
	C54.420475,78.884567 53.742466,77.752319 52.898354,75.715469 
	C52.627235,74.433159 52.522213,74.055443 52.475945,73.678207 
	C52.534698,73.678680 52.164143,73.870628 52.121548,73.466156 
	C51.052437,72.036736 50.025917,71.011795 48.882576,69.762634 
	C48.495850,69.342957 48.225948,69.147499 48.006332,68.630043 
	C47.318394,66.139908 46.968903,63.715565 45.749107,61.864830 
	C44.001804,59.213734 43.355556,57.043259 46.417068,54.866837 
	C47.190426,55.544785 47.637352,56.160320 48.081722,57.135750 
	C49.019424,58.499622 49.959690,59.503593 50.899956,60.507561 
	C51.223263,59.005333 51.546566,57.503109 51.992607,55.775578 
	C52.496994,55.704956 52.878647,55.859638 53.313148,56.239899 
	C53.566841,56.734962 53.835415,56.867836 54.501862,56.895546 
	C55.590393,57.220737 56.348770,57.514473 57.085449,58.059090 
	C57.408718,58.513588 57.753689,58.717209 58.385338,58.820702 
	C61.524559,56.900055 63.826923,58.429447 66.129692,60.273148 
	C66.768234,61.071941 67.408546,61.543270 68.020767,62.367691 
	C68.745926,64.154663 69.499168,65.588531 70.252419,67.022408 
	C73.161964,73.587929 76.071510,80.153458 78.981064,86.718979 
	C78.620354,86.878571 78.259644,87.038170 77.898933,87.197762 
	C75.900871,84.835426 73.902802,82.473083 71.904739,80.110741 
	C71.485939,80.412361 71.067139,80.713982 70.648338,81.015602 
	C72.020897,85.258713 73.393456,89.501816 74.766022,93.744926 
	C74.596169,93.909660 74.426323,94.074387 74.256477,94.239120 
	C70.822815,90.464058 67.389145,86.688995 63.686272,82.617966 
	C63.844982,84.500099 63.960804,85.873634 63.639153,87.619133 
	C62.391430,88.020531 61.581192,88.049973 60.770950,88.079414 
M54.759804,70.448555 
	C55.260654,70.839104 55.761509,71.229645 56.667950,71.936455 
	C56.262985,69.508118 55.975449,67.783943 55.687912,66.059769 
	C55.196407,66.076012 54.704899,66.092262 54.213394,66.108505 
	C54.285072,67.363594 54.356754,68.618683 54.759804,70.448555 
M57.721954,75.317703 
	C58.421169,76.469048 59.120380,77.620392 59.819595,78.771736 
	C60.274540,78.344887 60.729485,77.918045 61.184425,77.491203 
	C59.992104,76.570297 58.799782,75.649384 57.721954,75.317703 
M65.172073,69.750908 
	C65.117805,69.586807 65.063545,69.422714 65.009277,69.258614 
	C64.956268,69.423645 64.903252,69.588669 65.172073,69.750908 
M60.828072,62.249275 
	C60.882332,62.413395 60.936592,62.577515 60.990852,62.741634 
	C61.043884,62.576572 61.096916,62.411510 60.828072,62.249275 
M61.621220,81.474251 
	C61.838184,81.530167 62.055149,81.586082 62.272114,81.641998 
	C62.132420,81.503990 61.992725,81.365982 61.621220,81.474251 
M60.590042,73.517632 
	C60.590042,73.517632 60.474411,73.586853 60.590042,73.517632 
M50.595543,62.517616 
	C50.595543,62.517616 50.479313,62.587658 50.595543,62.517616 
M65.414825,73.482986 
	C65.414825,73.482986 65.522972,73.419083 65.414825,73.482986 
z"/>
<path fill="#EE2028" opacity="1.000000" stroke="none" 
	d="
M57.107147,57.808208 
	C56.348770,57.514473 55.590393,57.220737 54.417992,56.687363 
	C53.842411,56.155125 53.594524,56.010654 53.260300,56.014320 
	C52.878647,55.859638 52.496994,55.704956 51.809944,55.739704 
	C51.504539,55.929134 51.154053,55.798271 51.091774,55.494835 
	C50.354355,54.863701 49.679218,54.535995 48.649479,54.117874 
	C47.569031,54.070778 46.843189,54.114098 45.766369,54.091999 
	C44.945473,53.958794 44.475552,53.891006 43.990211,53.602467 
	C43.637806,53.268276 43.300816,53.154846 42.742134,53.028496 
	C42.520443,53.015575 42.094868,53.142639 41.765274,53.091877 
	C40.995968,53.074604 40.556248,53.108093 39.798294,53.057945 
	C37.393593,52.044479 35.307129,51.114643 33.220661,50.184811 
	C29.420780,49.268631 25.620897,48.352451 21.647253,47.394375 
	C21.720514,43.991985 24.427816,42.996475 27.539486,42.032894 
	C33.667721,43.650414 39.438488,45.281322 45.765259,47.179039 
	C46.929310,47.597942 47.537354,47.750038 48.145397,47.902138 
	C53.300011,48.979309 58.449390,50.082855 63.614452,51.107346 
	C64.462448,51.275551 65.379402,51.096123 66.580673,51.131981 
	C72.153687,52.907417 77.410492,54.628235 82.858681,56.411697 
	C80.440163,59.337009 76.772644,60.026958 72.089859,60.044163 
	C70.470840,60.109985 69.590828,60.204460 68.459900,60.217968 
	C67.516479,60.073227 66.823967,60.009453 66.131454,59.945679 
	C63.826923,58.429447 61.524559,56.900055 58.298271,58.575302 
	C57.652065,58.222752 57.379604,58.015480 57.107147,57.808208 
z"/>
<path fill="#EE2129" opacity="1.000000" stroke="none" 
	d="
M84.610825,108.073883 
	C84.611000,104.945869 84.611000,102.304283 84.611000,99.040565 
	C88.639824,99.040565 92.381729,99.069466 96.122993,99.032829 
	C100.263031,98.992279 103.714554,100.222099 104.745895,104.640518 
	C105.751930,108.950500 102.753151,111.135674 99.524948,112.999641 
	C101.862656,116.405693 104.212395,119.829269 106.666405,123.404770 
	C102.542534,124.912666 100.400665,123.580925 98.448219,120.460571 
	C96.579025,117.473274 95.339455,113.145691 89.715088,113.863297 
	C89.715088,117.189987 89.715088,120.420593 89.715088,123.821075 
	C87.864113,123.821075 86.571175,123.821075 84.610657,123.821075 
	C84.610657,118.693886 84.610657,113.627098 84.610825,108.073883 
M93.260658,110.703545 
	C94.326256,110.336807 95.565712,110.198235 96.416672,109.549820 
	C97.690369,108.579300 98.690964,107.250381 99.807709,106.073898 
	C98.484375,105.090363 97.287209,103.649605 95.805313,103.240692 
	C94.011230,102.745628 91.976334,103.123291 89.662598,103.123291 
	C90.083786,106.199669 87.396805,109.791641 93.260658,110.703545 
z"/>
<path fill="#EE1F27" opacity="1.000000" stroke="none" 
	d="
M342.859161,112.462860 
	C342.869873,116.383400 342.869873,119.861214 342.869873,123.717705 
	C341.225891,123.804176 339.852722,123.876404 338.039581,123.971771 
	C338.039581,121.007133 338.282288,118.348930 337.967560,115.758461 
	C337.683868,113.422943 339.450775,109.448235 335.441315,109.341972 
	C331.530304,109.238327 332.032379,113.096451 331.925720,115.855225 
	C331.829926,118.333382 331.905518,120.818161 331.905518,123.695839 
	C330.303711,123.793030 328.935486,123.876045 327.078247,123.988731 
	C327.078247,120.001137 327.200226,116.364395 327.007599,112.744408 
	C326.945801,111.583588 326.315430,109.858780 325.469299,109.493156 
	C324.534607,109.089233 322.783264,109.625290 321.897919,110.363747 
	C321.214813,110.933510 321.139557,112.443108 321.108276,113.543770 
	C321.014374,116.846268 321.074463,120.153152 321.074463,123.728958 
	C319.327698,123.728958 317.923676,123.728958 316.495697,123.728958 
	C316.352905,123.468597 316.063599,123.186172 316.062195,122.902328 
	C316.035431,117.416656 316.042389,111.930817 316.042389,106.084084 
	C319.143463,106.307846 322.058411,106.731453 324.964294,106.676697 
	C329.081299,106.599121 333.191345,106.164413 337.304932,105.890465 
	C341.732849,105.595558 342.228912,108.865837 342.859161,112.462860 
z"/>
<path fill="#EE2129" opacity="1.000000" stroke="none" 
	d="
M232.991180,124.229507 
	C227.992554,124.307388 224.462891,122.803619 222.923447,117.686584 
	C224.087631,116.980972 225.267044,116.266129 226.446472,115.551285 
	C226.343750,115.962578 226.241013,116.373878 226.138290,116.785179 
	C228.938187,117.837296 231.681778,119.152046 234.574295,119.772285 
	C235.381546,119.945381 237.281250,118.178391 237.465897,117.094589 
	C237.611557,116.239685 236.088409,114.656082 234.962662,114.125381 
	C232.890747,113.148621 230.517715,112.835442 228.357346,112.015938 
	C224.593643,110.588249 222.675079,107.815392 223.860092,103.819443 
	C224.915985,100.258858 227.171280,98.436066 231.349884,99.667572 
	C233.386993,100.267944 235.967529,99.178436 237.908325,99.905258 
	C239.603394,100.540054 240.746597,102.648506 242.243164,104.221001 
	C237.176056,107.433159 232.562973,99.049316 227.482376,105.860435 
	C230.109894,106.927238 232.314880,108.037292 234.644318,108.727196 
	C241.131485,110.648529 242.842606,112.413010 242.305481,117.644760 
	C241.760651,122.951576 237.932846,124.123268 232.991180,124.229507 
z"/>
<path fill="#EE232A" opacity="1.000000" stroke="none" 
	d="
M156.157318,109.124420 
	C157.650421,107.529800 159.051224,106.335396 161.220398,104.485825 
	C162.546906,109.528038 163.424469,112.863686 164.308319,116.197693 
	C168.150513,113.905838 164.505142,105.525681 172.685593,106.000130 
	C170.940659,111.562485 169.575729,116.703217 167.627380,121.612404 
	C167.087692,122.972252 164.814621,123.644157 162.813797,124.981224 
	C161.538391,120.405457 160.612534,117.083824 159.445984,112.898636 
	C158.514069,115.864693 158.004913,118.192474 157.038010,120.311378 
	C156.404572,121.699524 155.108765,122.785408 154.109619,124.006676 
	C152.969864,122.926727 151.294327,122.052231 150.787216,120.729698 
	C149.009766,116.094307 147.634903,111.304550 145.925323,106.010284 
	C153.968216,105.371025 150.639328,113.190010 154.295166,116.123863 
	C154.909576,113.832939 155.487305,111.678795 156.157318,109.124420 
z"/>
<path fill="#EE2B32" opacity="1.000000" stroke="none" 
	d="
M296.483154,119.065414 
	C296.181915,117.208725 295.911102,115.720108 295.957245,114.241379 
	C296.125061,108.860672 298.861450,106.100708 304.388031,105.580406 
	C308.231506,105.218567 311.385895,108.075371 312.393402,112.868065 
	C312.562683,113.673393 312.609314,114.504501 312.814636,116.132568 
	C308.766907,116.132568 304.896515,116.132568 299.802612,116.132568 
	C301.682404,118.765106 302.761414,120.276237 303.884705,121.849342 
	C306.365875,120.611465 308.209442,116.640488 311.274170,120.517471 
	C307.156982,126.169144 300.632599,125.699081 296.483154,119.065414 
z"/>
<path fill="#EE262E" opacity="1.000000" stroke="none" 
	d="
M255.800781,113.725105 
	C256.735931,110.868347 257.539795,108.387283 258.477173,105.494087 
	C260.064575,106.178604 261.202667,106.669373 262.240601,107.116943 
	C262.240601,107.744652 262.325134,108.081345 262.228180,108.353371 
	C260.112762,114.289215 258.252960,120.340294 255.703491,126.084923 
	C254.743362,128.248322 252.450485,130.262009 250.268692,131.324203 
	C247.810181,132.521088 245.663803,131.495712 246.076660,128.070633 
	C251.800629,126.227768 252.100464,125.622139 250.027466,120.080025 
	C248.343735,115.578583 246.646790,111.082085 244.902191,106.441048 
	C248.375122,104.993866 250.199112,106.077621 251.060318,109.521896 
	C251.699493,112.078232 252.695038,114.545471 253.815659,117.902657 
	C254.656281,116.178703 255.162872,115.139748 255.800781,113.725105 
z"/>
<path fill="#EE242B" opacity="1.000000" stroke="none" 
	d="
M195.949371,115.065826 
	C194.823318,111.935257 193.805435,109.182205 192.596878,105.913406 
	C201.525269,105.772789 198.000992,114.206566 202.051575,117.076599 
	C205.561996,115.129875 201.988953,106.521912 210.575470,107.000824 
	C207.834717,114.377747 205.423019,121.333374 202.591171,128.113510 
	C201.998779,129.531815 199.989899,130.751434 198.385925,131.227325 
	C197.149734,131.594101 195.525223,130.652054 194.073364,130.291977 
	C194.926392,129.264465 195.939377,128.328522 196.593063,127.186867 
	C197.461456,125.670174 198.770203,123.908195 198.593079,122.404305 
	C198.312012,120.017555 196.957779,117.757179 195.949371,115.065826 
z"/>
<path fill="#ED1B23" opacity="1.000000" stroke="none" 
	d="
M175.089951,110.175613 
	C177.306534,104.336517 182.276978,105.812111 186.197983,106.176826 
	C190.307693,106.559090 190.021683,110.499695 189.994812,113.716431 
	C189.967575,116.980911 189.988800,120.245796 189.988800,123.761299 
	C189.998276,123.758926 189.447296,124.097992 189.093048,123.953781 
	C186.214279,122.781746 183.541245,123.152962 180.551254,124.003242 
	C177.709991,124.811218 174.740295,123.647919 174.103333,120.209518 
	C173.446945,116.666336 175.441833,114.620941 178.831192,113.812286 
	C180.895798,113.319695 182.949097,112.779610 185.425766,112.155441 
	C184.437912,108.678154 182.613647,108.762985 180.122116,109.680557 
	C178.580582,110.248260 176.840683,110.277336 175.089951,110.175613 
M179.240646,120.616043 
	C183.056198,121.180336 185.683655,120.449013 184.909393,115.362457 
	C182.368866,116.568550 178.358963,115.096313 179.240646,120.616043 
z"/>
<path fill="#EE2028" opacity="1.000000" stroke="none" 
	d="
M117.796944,113.382355 
	C118.245056,111.990120 118.437233,110.881142 118.629410,109.772156 
	C117.235367,109.743622 115.804535,109.504456 114.456596,109.739891 
	C112.774147,110.033752 111.159966,110.718468 108.626236,111.513840 
	C110.951080,106.823532 115.709938,104.959961 120.011429,105.892426 
	C124.255852,106.812515 124.149254,109.983658 124.098328,113.244164 
	C124.044846,116.668129 124.086357,120.093590 124.086357,123.480934 
	C121.267120,123.683952 117.848495,123.953278 114.426537,124.169952 
	C111.106918,124.380150 108.385239,122.777359 108.588104,119.597855 
	C108.714737,117.613235 111.056671,115.460121 112.901100,114.017593 
	C113.917679,113.222527 115.960732,113.739914 117.796944,113.382355 
M114.148071,120.478691 
	C118.699150,121.875854 119.342705,119.221397 119.923561,114.618401 
	C117.061310,116.803970 112.405846,114.574883 114.148071,120.478691 
z"/>
<path fill="#323495" opacity="1.000000" stroke="none" 
	d="
M33.006737,50.476620 
	C35.307129,51.114643 37.393593,52.044479 39.658066,53.323273 
	C39.575394,54.391285 39.314716,55.110340 39.206177,56.112629 
	C40.329357,57.200737 41.953934,57.867874 42.157627,58.834457 
	C43.012733,62.892056 45.404388,65.939667 47.956047,68.952049 
	C48.225948,69.147499 48.495850,69.342957 48.623741,69.796371 
	C48.329491,70.102081 48.148628,70.114395 48.033180,70.207680 
	C47.920891,70.298393 47.792839,70.578651 47.812748,70.594124 
	C49.188915,71.663147 50.579288,72.713875 51.529434,73.890022 
	C51.134338,74.418289 51.178272,74.822678 51.222210,75.227074 
	C51.620537,74.710632 52.018864,74.194183 52.417191,73.677734 
	C52.522213,74.055443 52.627235,74.433159 52.870857,75.382339 
	C52.586906,78.018478 52.164360,80.083153 51.711742,82.294762 
	C51.673080,82.273087 50.815437,82.081642 50.466881,81.553932 
	C44.158863,72.003601 37.895588,62.423389 31.726200,52.783356 
	C31.524565,52.468288 32.412682,51.455807 33.006737,50.476620 
z"/>
<path fill="#EE2129" opacity="1.000000" stroke="none" 
	d="
M271.491364,121.060837 
	C273.414673,120.802734 275.080719,120.333023 276.746735,119.863304 
	C276.804230,119.419624 276.861725,118.975945 276.919220,118.532272 
	C274.913666,117.815277 272.942108,116.974968 270.894562,116.410088 
	C267.794952,115.554977 264.991516,114.304230 265.423035,110.522171 
	C265.832581,106.932182 268.166595,106.361320 271.708466,106.410095 
	C275.246613,106.458832 278.684967,105.168793 280.980499,110.742920 
	C276.920929,110.126625 273.572968,109.618362 270.225006,109.110107 
	C270.086456,109.717186 269.947906,110.324265 269.809326,110.931351 
	C271.860657,111.618011 273.895172,112.361000 275.967255,112.977982 
	C278.989136,113.877800 281.862488,115.007561 281.301819,118.914253 
	C280.761230,122.681061 278.038086,124.022537 274.525482,124.169228 
	C270.549286,124.335289 266.829681,123.981514 264.882721,119.408752 
	C267.591400,117.531357 269.660553,117.940758 271.491364,121.060837 
z"/>
<path fill="#EE222A" opacity="1.000000" stroke="none" 
	d="
M356.980652,112.955444 
	C359.144592,114.719215 362.467255,116.572327 362.325592,118.105217 
	C362.132782,120.191177 359.446747,123.460777 357.556549,123.662621 
	C354.266663,124.013908 350.753632,122.458130 347.387299,121.512596 
	C347.155060,121.447365 347.363495,119.813377 347.367004,118.908943 
	C348.654785,119.069832 350.215942,118.824524 351.176758,119.471199 
	C353.620270,121.115852 355.768219,122.650589 358.251526,118.441185 
	C355.779175,117.621857 353.574005,116.769524 351.302490,116.167747 
	C348.155121,115.333939 346.165039,113.635139 346.754059,110.174431 
	C347.278015,107.096031 349.026123,105.857117 352.365631,106.607758 
	C354.023315,106.980362 355.932251,106.066338 357.720795,106.099434 
	C358.562225,106.115005 359.613800,106.826370 360.137329,107.539970 
	C360.462463,107.983147 360.205078,109.503708 359.806671,109.692825 
	C358.965576,110.092072 357.844452,110.080406 356.866699,109.974281 
	C355.009491,109.772705 353.172363,109.386360 351.326874,109.076752 
	C351.192413,109.701881 351.057953,110.327011 350.923492,110.952141 
	C352.814148,111.602127 354.704834,112.252106 356.980652,112.955444 
z"/>
<path fill="#EE1F28" opacity="1.000000" stroke="none" 
	d="
M38.022720,117.008408 
	C38.693714,120.602341 40.078045,122.396797 43.891701,119.839790 
	C44.699108,119.298431 46.318260,119.967766 47.563404,120.079269 
	C46.882889,121.209435 46.239140,123.279022 45.515503,123.307343 
	C42.362316,123.430740 38.695889,123.870300 36.134003,122.490417 
	C32.391579,120.474678 32.279827,116.060707 33.168831,112.224113 
	C33.810390,109.455414 34.816986,107.169983 38.814220,106.613884 
	C46.364323,105.563507 48.522282,106.852074 49.645061,116.134750 
	C47.662125,116.134750 45.752872,116.134750 43.312469,115.740829 
	C43.473164,114.348167 44.165016,113.349426 45.456081,111.485672 
	C43.729389,110.697319 42.049416,109.930290 40.369442,109.163269 
	C39.717937,110.896103 39.010853,112.610870 38.439171,114.369652 
	C38.167320,115.205994 38.153458,116.126198 38.022720,117.008408 
z"/>
<path fill="#ED1D25" opacity="1.000000" stroke="none" 
	d="
M12.915474,109.037460 
	C12.915466,105.597267 12.915466,102.648926 12.915466,99.442886 
	C14.731408,99.442886 16.123919,99.442886 17.970449,99.442886 
	C17.970449,106.407349 17.970449,113.303574 17.970449,120.868683 
	C21.303446,120.868683 24.225925,120.728645 27.121475,120.946518 
	C28.102331,121.020317 29.015116,121.998779 29.959007,122.563835 
	C29.103390,123.041573 28.259321,123.906418 27.390228,123.932350 
	C22.776751,124.069969 18.156996,123.997047 12.915483,123.997047 
	C12.915483,119.002838 12.915483,114.266075 12.915474,109.037460 
z"/>
<path fill="#ED1821" opacity="1.000000" stroke="none" 
	d="
M62.150211,109.154190 
	C60.564739,110.923347 58.746948,112.563141 58.354027,114.493042 
	C57.772892,117.347366 58.203808,120.407738 58.203808,123.429756 
	C55.174786,124.533142 53.579018,124.278206 53.716793,120.700333 
	C53.901028,115.916100 53.762360,111.119431 53.762360,106.810524 
	C57.935825,106.810524 61.622749,106.837021 65.309082,106.801491 
	C67.899162,106.776527 69.278641,107.640167 69.077759,110.588844 
	C68.840858,114.066177 69.215538,117.590675 68.887726,121.053322 
	C68.773422,122.260658 67.357697,123.344780 66.536324,124.485176 
	C66.026634,124.227859 65.516953,123.970551 65.007263,123.713234 
	C65.007263,120.257988 65.245499,116.778374 64.895622,113.358925 
	C64.745628,111.892998 63.372566,110.552223 62.150211,109.154190 
z"/>
<path fill="#EE2930" opacity="1.000000" stroke="none" 
	d="
M293.720703,122.607956 
	C287.110596,125.007904 286.128479,124.127495 285.804016,117.320595 
	C285.667664,114.459953 283.615967,111.480293 284.090912,108.854225 
	C284.680206,105.595886 286.986694,102.648109 288.616211,99.438560 
	C290.801025,102.509865 292.290436,104.371552 293.483704,106.406837 
	C293.902496,107.121132 293.988281,108.528412 293.556671,109.166245 
	C289.426697,115.269211 289.442505,116.918442 293.968201,121.314880 
	C294.135437,121.477341 293.994934,121.956619 293.720703,122.607956 
z"/>
<path fill="#EE2028" opacity="1.000000" stroke="none" 
	d="
M19.239466,52.577450 
	C20.047613,55.505688 20.806013,58.023579 21.760902,61.193821 
	C20.201180,62.169647 18.332157,63.338982 16.487255,64.493233 
	C11.101214,57.420666 13.090382,47.265301 20.152615,44.979874 
	C19.827091,47.409634 19.508406,49.788368 19.239466,52.577450 
z"/>
<path fill="#ED1C24" opacity="1.000000" stroke="none" 
	d="
M143.358734,107.048370 
	C143.358841,112.840576 143.358841,118.141968 143.358841,123.709305 
	C141.760147,123.709305 140.532242,123.709305 139.040955,123.709305 
	C139.040955,115.648666 139.040955,107.709290 139.040955,99.404404 
	C140.168640,99.289268 141.392487,99.164314 143.358643,98.963562 
	C143.358643,101.707611 143.358643,104.132584 143.358734,107.048370 
z"/>
<path fill="#EE2029" opacity="1.000000" stroke="none" 
	d="
M131.858704,105.920433 
	C132.839890,106.619713 133.780579,107.304710 133.798248,108.012733 
	C133.925812,113.127121 133.866638,118.246162 133.866638,123.717712 
	C132.201218,123.829071 130.817139,123.921616 129.390274,124.017029 
	C129.198502,123.310455 128.968491,122.851082 128.964996,122.390007 
	C128.931168,117.911636 128.782135,113.424088 129.041122,108.960930 
	C129.102417,107.904327 130.570129,106.929329 131.858704,105.920433 
z"/>
<path fill="#EE232A" opacity="1.000000" stroke="none" 
	d="
M81.375824,43.709015 
	C82.388000,41.582855 83.581436,39.829895 85.017754,37.720181 
	C89.452606,44.853386 88.726692,50.069637 83.501221,52.983089 
	C82.846046,49.983501 82.201569,47.032860 81.375824,43.709015 
z"/>
<path fill="#FBCCCD" opacity="1.000000" stroke="none" 
	d="
M38.407364,116.997589 
	C38.153458,116.126198 38.167320,115.205994 38.439171,114.369652 
	C39.010853,112.610870 39.717937,110.896103 40.369442,109.163269 
	C42.049416,109.930290 43.729389,110.697319 45.456081,111.485672 
	C44.165016,113.349426 43.473164,114.348167 42.887566,115.686707 
	C41.593212,116.346588 40.192608,116.666679 38.407364,116.997589 
z"/>
<path fill="#EBEBF4" opacity="1.000000" stroke="none" 
	d="
M68.710808,60.298939 
	C69.590828,60.204460 70.470840,60.109985 71.677292,60.108849 
	C73.472710,62.392391 74.941704,64.582588 76.410690,66.772781 
	C76.122650,67.111214 75.834618,67.449646 75.546577,67.788078 
	C74.029182,67.538643 72.511780,67.289207 70.623398,67.031090 
	C69.499168,65.588531 68.745926,64.154663 68.456573,62.279396 
	C68.850586,61.324982 68.780693,60.811962 68.710808,60.298939 
z"/>
<path fill="#272990" opacity="1.000000" stroke="none" 
	d="
M60.951324,88.386124 
	C61.581192,88.049973 62.391430,88.020531 63.607170,87.993546 
	C65.089355,89.837151 66.166054,91.678314 67.242744,93.519470 
	C66.928818,93.735199 66.614883,93.950928 66.300957,94.166656 
	C64.577873,92.342049 62.854786,90.517441 60.951324,88.386124 
z"/>
<path fill="#272990" opacity="1.000000" stroke="none" 
	d="
M59.097809,87.281807 
	C59.397041,87.106071 59.624863,87.269402 59.890049,87.700653 
	C59.681095,87.777328 59.380753,87.661423 59.097809,87.281807 
z"/>
<path fill="#272990" opacity="1.000000" stroke="none" 
	d="
M55.090393,80.290840 
	C55.332634,80.252594 55.566780,80.488373 55.867233,80.970001 
	C55.649796,80.998856 55.366047,80.781868 55.090393,80.290840 
z"/>
<path fill="#EE232B" opacity="1.000000" stroke="none" 
	d="
M48.029877,47.662083 
	C47.537354,47.750038 46.929310,47.597942 46.133617,47.182205 
	C46.602097,47.086384 47.258224,47.254208 48.029877,47.662083 
z"/>
<path fill="#272990" opacity="1.000000" stroke="none" 
	d="
M48.006332,68.630043 
	C45.404388,65.939667 43.012733,62.892056 42.157627,58.834457 
	C41.953934,57.867874 40.329357,57.200737 39.521679,56.135513 
	C40.488316,54.964317 41.291592,54.053478 42.094868,53.142639 
	C42.094868,53.142639 42.520443,53.015575 42.825066,53.265884 
	C43.421665,53.618538 43.713650,53.720879 44.005630,53.823219 
	C44.475552,53.891006 44.945473,53.958794 45.755669,54.253456 
	C46.095943,54.480328 46.090641,54.804420 46.090641,54.804420 
	C43.355556,57.043259 44.001804,59.213734 45.749107,61.864830 
	C46.968903,63.715565 47.318394,66.139908 48.006332,68.630043 
z"/>
<path fill="#272990" opacity="1.000000" stroke="none" 
	d="
M51.154053,55.798271 
	C51.154053,55.798271 51.504539,55.929134 51.687202,55.965008 
	C51.546566,57.503109 51.223263,59.005333 50.899956,60.507561 
	C49.959690,59.503593 49.019424,58.499622 48.318520,57.187759 
	C48.557873,56.879871 49.034542,56.790928 49.338982,56.779976 
	C50.146961,56.445442 50.650505,56.121857 51.154053,55.798271 
z"/>
<path fill="#272990" opacity="1.000000" stroke="none" 
	d="
M54.594120,70.161163 
	C54.356754,68.618683 54.285072,67.363594 54.213394,66.108505 
	C54.704899,66.092262 55.196407,66.076012 55.687912,66.059769 
	C55.975449,67.783943 56.262985,69.508118 56.667950,71.936455 
	C55.761509,71.229645 55.260654,70.839104 54.594120,70.161163 
z"/>
<path fill="#272990" opacity="1.000000" stroke="none" 
	d="
M57.664711,75.023087 
	C58.799782,75.649384 59.992104,76.570297 61.184425,77.491203 
	C60.729485,77.918045 60.274540,78.344887 59.819595,78.771736 
	C59.120380,77.620392 58.421169,76.469048 57.664711,75.023087 
z"/>
<path fill="#272990" opacity="1.000000" stroke="none" 
	d="
M51.968464,73.766151 
	C50.579288,72.713875 49.188915,71.663147 47.812748,70.594124 
	C47.792839,70.578651 47.920891,70.298393 48.033180,70.207680 
	C48.148628,70.114395 48.329491,70.102081 48.740562,70.020584 
	C50.025917,71.011795 51.052437,72.036736 52.058643,73.453384 
	C52.038334,73.845078 51.968464,73.766151 51.968464,73.766151 
z"/>
<path fill="#FDFBFC" opacity="1.000000" stroke="none" 
	d="
M51.529434,73.890022 
	C51.968464,73.766151 52.038334,73.845078 52.101238,73.857849 
	C52.164143,73.870628 52.534698,73.678680 52.475945,73.678207 
	C52.018864,74.194183 51.620537,74.710632 51.222210,75.227074 
	C51.178272,74.822678 51.134338,74.418289 51.529434,73.890022 
z"/>
<path fill="#323495" opacity="1.000000" stroke="none" 
	d="
M68.459900,60.217968 
	C68.780693,60.811962 68.850586,61.324982 68.484665,61.926300 
	C67.408546,61.543270 66.768234,61.071941 66.129692,60.273148 
	C66.823967,60.009453 67.516479,60.073227 68.459900,60.217968 
z"/>
<path fill="#ECE9F2" opacity="1.000000" stroke="none" 
	d="
M49.034538,56.790928 
	C49.034542,56.790928 48.557873,56.879871 48.321075,56.827862 
	C47.637352,56.160320 47.190426,55.544785 46.417068,54.866837 
	C46.090641,54.804420 46.095943,54.480328 46.106644,54.318871 
	C46.843189,54.114098 47.569031,54.070778 48.650475,54.440483 
	C49.015564,55.499313 49.025051,56.145119 49.034538,56.790928 
z"/>
<path fill="#323495" opacity="1.000000" stroke="none" 
	d="
M65.011154,69.752304 
	C64.903252,69.588669 64.956268,69.423645 65.009277,69.258614 
	C65.063545,69.422714 65.117805,69.586807 65.011154,69.752304 
z"/>
<path fill="#323495" opacity="1.000000" stroke="none" 
	d="
M60.989010,62.247864 
	C61.096916,62.411510 61.043884,62.576572 60.990852,62.741634 
	C60.936592,62.577515 60.882332,62.413395 60.989010,62.247864 
z"/>
<path fill="#323495" opacity="1.000000" stroke="none" 
	d="
M57.085449,58.059090 
	C57.379604,58.015480 57.652065,58.222752 58.011593,58.675423 
	C57.753689,58.717209 57.408718,58.513588 57.085449,58.059090 
z"/>
<path fill="#272990" opacity="1.000000" stroke="none" 
	d="
M61.737125,81.351112 
	C61.992725,81.365982 62.132420,81.503990 62.272114,81.641998 
	C62.055149,81.586082 61.838184,81.530167 61.737125,81.351112 
z"/>
<path fill="#272990" opacity="1.000000" stroke="none" 
	d="
M53.313148,56.239899 
	C53.594524,56.010654 53.842411,56.155125 54.087837,56.655907 
	C53.835415,56.867836 53.566841,56.734962 53.313148,56.239899 
z"/>
<path fill="#272990" opacity="1.000000" stroke="none" 
	d="
M60.532227,73.552246 
	C60.474411,73.586853 60.590042,73.517632 60.532227,73.552246 
z"/>
<path fill="#272990" opacity="1.000000" stroke="none" 
	d="
M50.537430,62.552635 
	C50.479313,62.587658 50.595543,62.517616 50.537430,62.552635 
z"/>
<path fill="#323495" opacity="1.000000" stroke="none" 
	d="
M65.468903,73.451035 
	C65.522972,73.419083 65.414825,73.482986 65.468903,73.451035 
z"/>
<path fill="#7374B3" opacity="1.000000" stroke="none" 
	d="
M41.765274,53.091877 
	C41.291592,54.053478 40.488316,54.964317 39.369537,55.852272 
	C39.314716,55.110340 39.575394,54.391285 39.976303,53.406906 
	C40.556248,53.108093 40.995968,53.074604 41.765274,53.091877 
z"/>
<path fill="#D8B3C4" opacity="1.000000" stroke="none" 
	d="
M49.338978,56.779976 
	C49.025051,56.145119 49.015564,55.499313 49.005081,54.530899 
	C49.679218,54.535995 50.354355,54.863701 51.091774,55.494835 
	C50.650505,56.121857 50.146961,56.445442 49.338978,56.779976 
z"/>
<path fill="#EE232B" opacity="1.000000" stroke="none" 
	d="
M43.990211,53.602463 
	C43.713650,53.720879 43.421665,53.618538 43.046757,53.278809 
	C43.300816,53.154846 43.637806,53.268276 43.990211,53.602463 
z"/>
<path fill="#FDE7E8" opacity="1.000000" stroke="none" 
	d="
M92.870895,110.744072 
	C87.396805,109.791641 90.083786,106.199669 89.662598,103.123291 
	C91.976334,103.123291 94.011230,102.745628 95.805313,103.240692 
	C97.287209,103.649605 98.484375,105.090363 99.807709,106.073898 
	C98.690964,107.250381 97.690369,108.579300 96.416672,109.549820 
	C95.565712,110.198235 94.326256,110.336807 92.870895,110.744072 
z"/>
<path fill="#FEEEEE" opacity="1.000000" stroke="none" 
	d="
M179.135681,120.244041 
	C178.358963,115.096313 182.368866,116.568550 184.909393,115.362457 
	C185.683655,120.449013 183.056198,121.180336 179.135681,120.244041 
z"/>
<path fill="#FDE4E5" opacity="1.000000" stroke="none" 
	d="
M113.876839,120.207367 
	C112.405846,114.574883 117.061310,116.803970 119.923561,114.618401 
	C119.342705,119.221397 118.699150,121.875854 113.876839,120.207367 
z"/>
</svg>